<svg xmlns="http://www.w3.org/2000/svg" xmlns:xlink="http://www.w3.org/1999/xlink" width="191" height="36" viewBox="0 0 191 36">
    <defs>
        <path id="a" d="M.064.035h18.21v23.844H.063z"/>
    </defs>
    <g fill="none" fill-rule="evenodd">
        <path fill="#FEFEFE" d="M32.678 13.653a151.456 151.456 0 0 0-4.592 2.523l.013 1.164a161.216 161.216 0 0 1 4.59-2.575c-.02-.357-.02-.739-.01-1.112M117.854 13.178l-.177.675 2.776 1.195-.016-.759-2.583-1.111M111.825 11.345l.135-.688c-.775-.328-1.553-.652-2.33-.975l.183.818c.671.28 1.342.561 2.012.845M83.311 1.94c4.643.566 9.21 1.893 13.677 3.49.2-.138.416-.28.637-.414C92.46 3.2 87.175 1.704 81.73 1.176 70.794.116 59.8 2.4 49.451 6.167c.232.198.456.409.667.621C60.755 2.865 72.098.574 83.311 1.941M.85 35.53c-.254.218 1.045.608 1.384.316a176.678 176.678 0 0 1 17.27-13.14l.029-1.28A181.546 181.546 0 0 0 .85 35.53M169.923 24.712c-10.498 2.905-21.403.483-31.682-3.192-.13.17-.27.34-.415.505 10.42 3.667 21.537 6.123 32.301 3.428.26-.066.52-.136.778-.21.732-.202-.63-.629-.982-.531M6.19 12.227c.804-1.191 1.781-1.788 2.932-1.788 1.02 0 1.84.33 2.46.993.619.664.929 1.547.929 2.652a4.472 4.472 0 0 1-.896 2.717 2.967 2.967 0 0 1-.977.83c-.381.198-.798.295-1.255.295-.651 0-1.27-.25-1.857-.76a4.844 4.844 0 0 1-1.336-1.922v-3.017zm0 8.086c.5.95 1.205 1.674 2.118 2.172.912.497 1.988.744 3.226.744a6.3 6.3 0 0 0 2.9-.68 7 7 0 0 0 2.313-1.905c.65-.817 1.161-1.784 1.53-2.9.37-1.113.555-2.322.555-3.628 0-1.28-.201-2.473-.603-3.578-.403-1.104-.95-2.055-1.645-2.85a7.477 7.477 0 0 0-2.509-1.873 7.429 7.429 0 0 0-3.16-.68c-1.304 0-2.401.255-3.29.763-.892.508-1.642 1.238-2.249 2.187V5.467H0v24.49h6.19v-9.644z"/>
        <path fill="#FEFEFE" d="M29.012 6.08c-.902.63-1.656 1.531-2.265 2.7V5.467h-5.668v17.43h6.19V12.56c.477-.617 1.205-1.06 2.182-1.325.978-.265 2.064-.399 3.259-.399V5.17c-.11-.022-.37-.035-.782-.035-1.043 0-2.015.316-2.916.945M67.26 14.1c-.51-.43-1.19-.83-2.036-1.193-.848-.364-1.89-.712-3.127-1.044-1.022-.265-1.707-.502-2.054-.712-.348-.21-.52-.481-.52-.813 0-.308.119-.534.357-.678.239-.143.543-.216.913-.216.63 0 1.304.15 2.02.447.716.3 1.607.8 2.671 1.509l2.347-3.778C66.679 6.606 65.534 5.93 64.393 5.6a12.827 12.827 0 0 0-3.6-.498c-1.021 0-1.96.15-2.819.447a6.473 6.473 0 0 0-2.215 1.277 5.933 5.933 0 0 0-1.45 1.953 5.77 5.77 0 0 0-.52 2.454c0 .663.108 1.238.325 1.723.217.486.581.929 1.091 1.325.51.399 1.173.767 1.988 1.111.814.34 1.83.692 3.046 1.044.978.287 1.634.542 1.97.76.338.223.506.486.506.798 0 .55-.434.83-1.303.83-.826 0-1.733-.203-2.72-.6-.989-.396-2.015-.958-3.079-1.69l-2.118 3.778c.998.95 2.215 1.674 3.649 2.172 1.434.497 2.9.745 4.399.745 1.107 0 2.1-.134 2.98-.397.88-.267 1.63-.651 2.249-1.161a5.09 5.09 0 0 0 1.417-1.82c.326-.709.489-1.514.489-2.42 0-.708-.11-1.33-.326-1.873-.218-.542-.582-1.028-1.092-1.459M79.233 10.439c.998 0 1.791.43 2.378 1.293l6.026-1.857c-.693-1.392-1.741-2.529-3.143-3.412-1.4-.884-3.143-1.327-5.228-1.327-1.521 0-2.868.248-4.041.746-1.172.498-2.155 1.159-2.948 1.988a8.418 8.418 0 0 0-1.809 2.882 9.637 9.637 0 0 0-.618 3.43c0 1.195.206 2.336.618 3.432a8.39 8.39 0 0 0 1.81 2.88c.792.83 1.775 1.493 2.947 1.99 1.173.498 2.52.745 4.04.745 2.086 0 3.829-.44 5.23-1.327 1.4-.881 2.449-2.018 3.142-3.41l-6.026-1.857c-.587.862-1.38 1.29-2.378 1.29-.847 0-1.564-.323-2.15-.974-.587-.651-.88-1.574-.88-2.768 0-1.193.293-2.116.88-2.767.586-.651 1.303-.977 2.15-.977M97.527 6.08c-.9.63-1.655 1.531-2.263 2.7V5.467h-5.672v17.43h6.193V12.56c.477-.617 1.205-1.06 2.183-1.325.979-.265 2.064-.399 3.257-.399V5.17c-.107-.022-.37-.035-.783-.035-1.042 0-2.013.316-2.915.945M133.496 15.576a4.385 4.385 0 0 1-.652 1.225c-.271.352-.597.631-.979.83-.378.198-.8.295-1.253.295-.652 0-1.272-.25-1.857-.76a4.811 4.811 0 0 1-1.336-1.922v-3.017c.803-1.191 1.781-1.788 2.93-1.788 1.023 0 1.842.33 2.462.993.617.664.927 1.547.927 2.652 0 .53-.08 1.026-.242 1.492m6.01 2.168c.37-1.113.552-2.322.552-3.628 0-1.28-.199-2.473-.6-3.578-.402-1.104-.951-2.055-1.647-2.85a7.47 7.47 0 0 0-5.668-2.552c-1.304 0-2.402.254-3.293.762-.89.508-1.638 1.238-2.247 2.187V5.467h-5.377v24.49h6.193v-9.644c.5.95 1.205 1.674 2.115 2.172.915.498 1.989.745 3.226.745a6.304 6.304 0 0 0 2.903-.68 7.029 7.029 0 0 0 2.31-1.906c.653-.817 1.162-1.784 1.532-2.9M143.283 18.193c0 .95.135 1.743.41 2.386.27.64.64 1.162 1.105 1.558.47.397 1.019.684 1.647.862a7.422 7.422 0 0 0 1.988.263c.955 0 1.925-.126 2.916-.38a18.848 18.848 0 0 0 2.784-.943l-1.106-4.972a6.914 6.914 0 0 1-1.173.413c-.39.1-.74.15-1.042.15-.414 0-.74-.118-.978-.349-.239-.23-.358-.634-.358-1.209v-5.766h3.356V5.467h-3.356V0h-6.193v5.467h-2.115v4.74h2.115v7.986zM166.319 16.935c-.57.663-1.293.99-2.184.99-.89 0-1.618-.327-2.183-.99-.565-.664-.847-1.582-.847-2.752 0-1.171.282-2.088.847-2.751.565-.663 1.292-.993 2.183-.993.891 0 1.615.33 2.184.993.564.663.847 1.58.847 2.75 0 1.171-.283 2.09-.847 2.753m7.198-2.752a9.877 9.877 0 0 0-.604-3.43 8.24 8.24 0 0 0-1.79-2.883c-.795-.83-1.778-1.49-2.947-1.988-1.173-.498-2.522-.746-4.041-.746-1.543 0-2.895.248-4.056.746-1.162.498-2.14 1.159-2.932 1.988a8.19 8.19 0 0 0-1.793 2.882 9.877 9.877 0 0 0-.605 3.43c0 1.195.203 2.336.605 3.432a8.165 8.165 0 0 0 1.793 2.88c.792.83 1.77 1.493 2.932 1.99 1.16.498 2.513.745 4.056.745 1.52 0 2.868-.247 4.041-.744 1.17-.498 2.152-1.161 2.947-1.99a8.214 8.214 0 0 0 1.79-2.88 9.884 9.884 0 0 0 .604-3.432M40.138 12.328c.108-.84.411-1.503.912-1.99.499-.485 1.14-.728 1.922-.728s1.422.243 1.923.728c.499.487.803 1.15.911 1.99h-5.668zm9.92-4.458c-.792-.83-1.775-1.49-2.948-1.988s-2.52-.746-4.04-.746c-1.543 0-2.894.248-4.056.746-1.163.498-2.14 1.165-2.933 2.004a8.287 8.287 0 0 0-1.791 2.95 10.56 10.56 0 0 0-.603 3.58c0 1.172.206 2.284.619 3.344a8.321 8.321 0 0 0 1.808 2.82c.793.817 1.776 1.464 2.948 1.937 1.173.473 2.509.712 4.008.712 2.106 0 3.882-.44 5.326-1.327 1.445-.881 2.515-2.018 3.21-3.41l-5.246-1.525c-.195.55-.591.983-1.189 1.29a4.064 4.064 0 0 1-1.906.466 3.486 3.486 0 0 1-1.987-.611c-.608-.409-.945-1.08-1.01-2.006H52.29c.044-.268.082-.57.114-.91.033-.345.05-.681.05-1.013a9.875 9.875 0 0 0-.603-3.43 8.246 8.246 0 0 0-1.792-2.883zM113.77 5.467l-2.641 12.095-3.258-12.095h-6.355l6.224 17.43c-.131 1.546-.86 2.323-2.183 2.323-.697 0-1.544-.19-2.542-.567v5.372a8.376 8.376 0 0 0 3.194.627c.867 0 1.706-.133 2.509-.396a7.67 7.67 0 0 0 2.2-1.145 7.64 7.64 0 0 0 1.71-1.788 8.357 8.357 0 0 0 1.105-2.338l5.803-19.518h-5.767z"/>
        <g transform="translate(172.577 .248)">
            <mask id="b" fill="#fff">
                <use xlink:href="#a"/>
            </mask>
            <path fill="#FEFEFE" d="M18.24.035s-.025.215-.09.595l.09-.595C14.881 2.835 7.643 2.07 7.643 2.07c1.297 3.342.062 8.86-1.316 13.162-.51.117-1.039.21-1.591.275 0 0-.017 3.909-2.15 6.52a7.58 7.58 0 0 1-2.494 1.839l-.03.012s2.004-.196 4.681-1.205c3.701-1.353 6.323-3.393 8.159-5.431l.008-.01c.098-.108.193-.217.287-.325 3.078-3.551 5.387-8.881 5.041-16.873" mask="url(#b)"/>
        </g>
    </g>
</svg>
