<svg xmlns="http://www.w3.org/2000/svg" xmlns:xlink="http://www.w3.org/1999/xlink" width="490" height="349" viewBox="0 0 490 349">
    <defs>
        <path id="a" d="M.517.36H14.2v11.006H.517z"/>
        <path id="c" d="M.608.36H14.29v11.006H.608z"/>
        <path id="e" d="M0 .633h280.96v210.516H0z"/>
        <path id="g" d="M0 348.618h489.887V0H0z"/>
    </defs>
    <g fill="none" fill-rule="evenodd">
        <path fill="#FFCAC4" d="M251.463 103.717l-6.72-2.278a.542.542 0 0 1-.345-.663l.65-2.254a.54.54 0 0 1 .576-.388l4.24.46a.54.54 0 0 0 .591-.621.54.54 0 0 1 .767-.571l4.727 2.273a.542.542 0 0 1 .3.568l-.39 2.636a.542.542 0 0 1-.475.459l-3.69.404a.54.54 0 0 1-.23-.025"/>
        <path fill="#3546B1" d="M307.854 74.988L288.06 96.692a.537.537 0 0 1-.39.176l-33.93.523a.54.54 0 0 0-.53.537l-.06 5.944a.541.541 0 0 0 .432.535l40.399 8.341a.54.54 0 0 0 .46-.12l28.083-24.211a.544.544 0 0 0 .011-.813l-13.92-12.652a.538.538 0 0 0-.76.036"/>
        <path fill="#FFCAC4" d="M327.935 61.474c.855-1.75.99-3.803.734-5.749-.552-4.176-3.094-8.223-6.917-9.708-5.71-2.216-12.13 1.624-18.094.481a.54.54 0 0 0-.638.412c-.495 2.318-.94 4.67-.825 7.039.26 5.44 3.724 10.597 8.571 12.762 4.847 2.164 10.843 1.232 14.84-2.306.935-.828 1.774-1.796 2.329-2.931"/>
        <path fill="#071225" d="M304.668 48.532l18.752.872c.27.013.489.225.512.496l1.176 13.986c.032.392.457.619.799.428l5.123-2.852a.543.543 0 0 0 .277-.448l1.149-23.702a.54.54 0 0 0-.439-.559l-26.287-4.97a.534.534 0 0 0-.293.026l-12.374 4.761a.541.541 0 0 0-.343.456l-.591 6.386a.543.543 0 0 0 .166.444l8.656 8.213c.234.222.606.19.8-.067l2.463-3.256a.539.539 0 0 1 .454-.214"/>
        <path fill="#3546B1" d="M308.825 73.303l21.264-3.486a.529.529 0 0 1 .476.16c2.03 2.161 19.441 21.212 29.315 49.24 9.904 28.113-4.282 68.636-5.912 73.115a.53.53 0 0 1-.577.346c-5.294-.747-58.268-8.222-69.177-9.692a.538.538 0 0 1-.445-.669l15.39-61.252c.002-.009.005-.018.006-.028l9.218-47.303a.54.54 0 0 1 .442-.43"/>
        <path fill="#FFCAC4" d="M321.507 66.298a22.999 22.999 0 0 0 1.828 3.844.542.542 0 0 1-.35.813l-7.174 1.47a.54.54 0 0 1-.636-.422l-.99-4.846a.542.542 0 0 1 .491-.65l5.626-.381a.533.533 0 0 0 .134-.026l.4-.133a.536.536 0 0 1 .671.33"/>
        <path fill="#7B6757" d="M102.628 256.095l-.417 1.333-1.388 4.423 7.423 7.21 5.793-3.03-3.018-5.817-.327-.318-.31.478z"/>
        <path fill="#33435A" d="M142.708 139.389c-4.142.787-8.364 1.912-12.056 4.028-1.73.993-3.22 2.207-4.713 3.435l-.326 49.953-23.417 59.051.432.239.97-3.09 7.096 6.89 42.958-66.53 2.27-8.122-7.766-46.788c-1.825.271-3.643.58-5.448.934"/>
        <path fill="#33435A" d="M102.628 256.095l7.756 4.28.31-.48-7.097-6.891zM159.787 171.407l-3.866 13.835.884 5.325 5.395 70.431h.05v-1.02h8.64l10.96-75.31-.53-46.09c-2.005-.21-11.086-1.129-17.419-1.262l-4.114 34.091z"/>
        <path fill="#33435A" d="M163.901 137.316a59.99 59.99 0 0 0-2.361-.01c-4.47.084-8.95.49-13.383 1.15l7.764 46.787 3.866-13.836 4.114-34.091z"/>
        <path fill="#7B6757" d="M162.25 260.998v3.617l9.236 4.638 4.619-4.638-4.619-4.638h-.596l-.148 1.021z"/>
        <path fill="#7B6757" d="M162.25 260.998h8.492l.148-1.02h-8.64z"/>
        <path fill="#FFCAC4" d="M155.38 48.332c.33-1.212.668-2.39 1.705-2.999.942-.554 2.139-.394 3.17-.753 1.943-.678 2.78-2.92 3.374-4.896l1.553-5.155c.232-.774.464-1.572.615-2.374-2.953-1.108-5.714-3.139-8.798-3.915-3.46-.87-9.776-2.156-12.697.752a1.776 1.776 0 0 0-.177.21l-.647 3.082c-.013 2.9.767 6.692.67 8.234a7 7 0 0 1-1.228-.557c.9 1.465 2.785 2.378 4.476 3.047a40.222 40.222 0 0 0-.664 6.354l.304.042c2.81-.363 5.628-.624 8.093-1.033.083-.013.167-.025.25-.039"/>
        <path fill="#33435A" d="M142.623 36.353l.855-4.069c.005-1.301.17-2.422.647-3.081l.385-1.834c.218-1.036.448-2.102 1.046-2.974 1.047-1.53 2.995-2.145 4.828-2.395 4.677-.639 9.704.56 13.195 3.75.93.85 1.76 1.859 2.14 3.062.341 1.083.29 2.217.078 3.344.66.247 1.33.45 2.016.581 2.697.516 6.21-.692 8.569-2.015 2.91-1.634 4.422-6.654 6.188-9.34a19.52 19.52 0 0 1 1.578-2.105c1.246-1.431 2.76-2.641 3.78-4.244 1.019-1.602 1.437-3.81.342-5.36-.707-1-1.894-1.531-3.052-1.921a22.6 22.6 0 0 0-11.915-.663c-3.748.813-7.129 2.261-10.816.722-3.464-1.448-6.02-1.005-9.74.174-4.023 1.276-9.368 1.415-13.037 3.292-1.532.783-2.779 2.05-3.766 3.464-3.42 4.899-3.691 11.817-.666 16.971.678 1.157 1.502 2.22 2.371 3.24 1.503 1.763 3.25 3.866 5.27 5.009a3.53 3.53 0 0 1-.507-1.408c-.094-.734.058-1.476.21-2.2"/>
        <path fill="#33435A" d="M143.478 32.284l-.855 4.07c-.152.723-.305 1.465-.211 2.199.067.52.249.986.508 1.408a7.03 7.03 0 0 0 1.228.557c.097-1.542-.683-5.333-.67-8.234M165.719 28.812c-.38-1.203-1.21-2.213-2.14-3.062-3.491-3.19-8.518-4.389-13.195-3.75-1.833.25-3.78.864-4.829 2.395-.597.872-.827 1.938-1.045 2.974l-.385 1.833c.055-.075.114-.147.177-.21 2.921-2.909 9.237-1.622 12.697-.752 3.084.776 5.846 2.807 8.798 3.915.213-1.126.263-2.26-.078-3.343"/>
        <path fill="#FFCAC4" d="M109.824 10.352l1.81-3.773-.601-.79-1 .703.609-3.562-1.455-2.544-3.87-.386-3.396 2.154.026 3.898 2.338 3.999.5 1.574 5.492-.037z"/>
        <path fill="#3546B1" d="M216.992 121.01c-1.424-2.062-6.262-3.442-8.443-4.708-4.87-2.829-9.552-6.058-13.675-9.935-5.859-5.512-10.182-12.273-12.888-19.887-1.366-3.845-2.351-7.817-3.165-11.814-.294-1.446 1.765-.237 1.51-1.69l17.17-.425-25.012-26.26-.082 1.275a6.429 6.429 0 0 1 .082-1.275c-5.778 2.307-11.26 1.13-17.11 2.041-.083.013-.166.025-.25.04-2.465.408-5.284.668-8.092 1.031-3.144.406-6.277.941-8.887 1.96a9.244 9.244 0 0 0-2.246 1.285l-16.438-14.384-6.93-26.692-2.26.015-5.491.038-1.972.014 4.637 42.745 16.92 23.625c-1.044 4.512-1.924 9.01-2.318 11.616-.983 6.504-1.893 13.021-2.6 19.562-.79 7.3-1.333 14.633-1.448 21.977-.013.817-.133 3.103-.189 5.84-.118 5.764.051 13.53 2.117 13.814.388.054.76-.152 1.097-.349 1.818-1.064 3.365-2.347 4.91-3.618 1.492-1.226 2.982-2.441 4.713-3.433 3.691-2.117 7.914-3.242 12.056-4.03a119.89 119.89 0 0 1 5.448-.933c4.434-.658 8.914-1.065 13.383-1.149a59.99 59.99 0 0 1 2.362.01c6.333.134 15.415 1.053 17.419 1.263l.407.043c3.85-.694 7.53-2.115 11.218-3.433 6.338-2.264 12.81-4.26 18.756-7.432 1.909-1.017 7.172-4.025 5.291-6.748M476.022 243.83l-9.6 42.826-8.826 50.955h-8.926l-3.65-123.98 29.51.538z"/>
        <path fill="#3546B1" d="M419.52 241.211l-1.239 41.572 12.465 54.828h8.013l.819-57.82 8.765-47.321 2.18-15.107-24.57-2.91z"/>
        <path fill="#33435A" d="M438.956 129.374l27.855 2.064 15.05 26.059c-4.426 15.837-2.637 10.292-5.33 24.605l7.964 39.412-10.391 3.04-37.764.676-12.42-2.184 3.398-37.604-1.762-50.213 13.4-5.855z"/>
        <path fill="#33435A" d="M433.465 149.862l-14.008 21.718-38.728 4.254-1.12-6.403 30.923-12.102 15.024-22.1z"/>
        <path fill="#D98465" d="M440.432 105.25c4.224-12.334 20.44-7.711 23.783 3.271 2.18 7.165-3.33 16.462-10.722 18.52a7.199 7.199 0 0 0-.058.769c-.005 1.15-.146 2.283-.315 3.432-.064.429-6.533-.82-7.254-.962-.253-.05-.535-.119-.67-.331-.261-.408.163-1.61.21-2.063l.169-1.605c-3.647-1.788-5.948-5.595-6.59-9.47-.647-3.894.177-7.854 1.447-11.56"/>
        <path fill="#33435A" d="M452.07 93.754c.8.95 1.048 2.21 1.208 3.413.096.718.169 1.46-.034 2.148-.813 2.746-3.56 2.39-5.76 3.126-2.714.909-5.137 2.779-6.788 5.02-2.585 3.508-1.907 8.328-1.28 12.465.22 1.457.723 3.637-.48 4.83-1.222 1.212-3.805.813-5.1.043-1.184-.705-2.11-1.91-3.443-2.241-1.412-.35-3.39.134-3.956-1.234-.157-.38-.14-.83-.349-1.184-.704-1.194-2.77-.016-3.822-.9-.647-.544-.563-1.593-.268-2.404.294-.812.747-1.622.65-2.479-.083-.735-.561-1.348-.833-2.032-.537-1.352-.189-3.032.841-4.06 1.915-1.911 5.293-1.263 7.325-3.043 1.058-.928 1.549-2.344 2.019-3.685.47-1.34 1.02-2.75 2.14-3.597 1.384-1.046 3.243-.708 4.626-1.969.812-.74 1.393-1.741 2.29-2.371 1.181-.831 3.41-1.369 4.83-1.73 2.251-.573 4.671.086 6.185 1.884"/>
        <path fill="#33435A" d="M460.81 114.163c-.23 4.054-2.565 8.277-.979 11.983 1.603 3.739 6.225 4.745 10.192 5.237.652.08 9 1.451 9.048 1.294.842-2.772 1.711-5.597 3.366-7.962 1.655-2.363 4.265-4.227 7.088-4.188-.8-.203-1.133-1.232-.976-2.065.157-.833.648-1.558.96-2.346.766-1.937.342-4.298-1.042-5.806-2.761-3.01-8.239-2.266-10.544-5.656-1.43-2.102-1.024-4.962-1.669-7.444-1.247-4.8-6.272-6.168-9.923-8.572-3.854-2.538-7.55-4.049-12.253-3.627-5.83.524-10.555 6.082-8.755 11.79 2.31 7.322 13.74 7.58 15.326 14.955.17.792.208 1.596.162 2.407"/>
        <path fill="#FFF" d="M457.596 130.781l-8.212 11.656-3.86-.318-5.24-12.652z"/>
        <g transform="translate(443.397 337.252)">
            <mask id="b" fill="#fff">
                <use xlink:href="#a"/>
            </mask>
            <path fill="#33435A" d="M5.274.36L.517 6.502l4.43 4.863 6.21-5.504L14.2.36z" mask="url(#b)"/>
        </g>
        <g transform="translate(424.755 337.252)">
            <mask id="d" fill="#fff">
                <use xlink:href="#c"/>
            </mask>
            <path fill="#33435A" d="M5.365.36L.608 6.502l4.43 4.863 6.21-5.504L14.29.36z" mask="url(#d)"/>
        </g>
        <path fill="#D98465" d="M393.936 182.75l5.345-1.875s4.122.335 5.05 1.451l1.62 4.327-5.888 4.939-5.21-2.622-.917-6.22z"/>
        <g transform="translate(0 56.447)">
            <mask id="f" fill="#fff">
                <use xlink:href="#e"/>
            </mask>
            <path fill="#667DCA" d="M140.48 15.456v-3.762c0-6.11-5.061-11.061-11.305-11.061H11.305C5.061.633 0 5.585 0 11.694V211.15h280.96V26.517c0-6.108-5.061-11.06-11.304-11.06H140.48z" mask="url(#f)"/>
        </g>
        <mask id="h" fill="#fff">
            <use xlink:href="#g"/>
        </mask>
        <path fill="#FFF0DD" d="M12.472 269.62h258.641V87.841H12.473z" mask="url(#h)"/>
        <path fill="#7586DC" d="M136.473 110.57l-4.17 11.315H11.304C5.06 121.885 0 126.837 0 132.946v140.83c0 6.108 5.061 11.06 11.305 11.06h258.35c6.244 0 11.305-4.952 11.305-11.06V114.323c0-6.109-5.061-11.06-11.305-11.06H147.107c-4.765 0-9.017 2.922-10.634 7.308" mask="url(#h)"/>
        <path fill="#00A6A4" d="M303.207 158.632v-3.2c0-5.194-4.304-9.406-9.613-9.406H193.35c-5.31 0-9.614 4.212-9.614 9.407V325.06H422.68V168.039c0-5.194-4.305-9.407-9.614-9.407H303.207z" mask="url(#h)"/>
        <path fill="#FFF0DD" d="M194.343 326.781h219.962V172.187H194.343z" mask="url(#h)"/>
        <path fill="#00BCBC" d="M299.8 191.517l-3.547 9.623H193.349c-5.309 0-9.613 4.21-9.613 9.407v119.77c0 5.194 4.304 9.405 9.613 9.405h219.717c5.31 0 9.613-4.211 9.613-9.406V194.71c0-5.196-4.304-9.407-9.613-9.407H308.844c-4.052 0-7.67 2.486-9.044 6.215" mask="url(#h)"/>
        <path fill="#FFCAC4" d="M183.163 67.403l5.344-1.875s4.122.335 5.05 1.452l1.621 4.326-5.89 4.939-5.208-2.623-.917-6.219zM274.459 125.96l-7.713.47-.344-3.302 5.211-1.496-.884-1.486 6.65.406.817 3.384z" mask="url(#h)"/>
        <path fill="#4E5FCA" d="M318.264 80.278l-10.102 28.595-32.99 10.783 1.967 6.631 41.758-4.061 23.349-37.23-12.11-15.419z" mask="url(#h)"/>
        <path fill="#D98465" d="M400.915 199.098l-7.779.862-.331 2.698-4.885 3.352 2.074 3.148 10.082-3.235z" mask="url(#h)"/>
        <path fill="#3E5169" d="M481.86 157.497l-28.16 29.768-12.749 4.835-41.482 14.93.786-9.543 41.679-22.215 23.963-43.824 10.998 6.074z" mask="url(#h)"/>
    </g>
</svg>
