<svg xmlns="http://www.w3.org/2000/svg" width="44" height="39" viewBox="0 0 44 39">
    <g fill="#3F4ACA" fill-rule="evenodd" opacity=".127">
        <path d="M12.964 2.637l-1.255-.885-.043-.032-.08-.032-.916-.435.027.064C9.831.963 8.921.711 7.93.711 3.548.711 0 4.386 0 8.92c0 4.534 3.553 8.209 7.93 8.209 1.405 0 2.703-.408 3.85-1.073-.394 4.388-2.612 10.788-10.741 17.317-1.136.912-1.346 2.608-.463 3.783A2.564 2.564 0 0 0 2.638 38.2c.56 0 1.12-.188 1.599-.563 9.976-8.026 12.468-16.266 12.802-21.77.571-7.04-1.572-10.741-3.531-12.673l-.544-.558zM40.27 3.195l-.55-.558-1.248-.885-.043-.032-.086-.032-.914-.435.027.064c-.867-.354-1.781-.606-2.771-.606-4.374 0-7.915 3.675-7.915 8.208 0 4.534 3.54 8.209 7.926 8.209 1.404 0 2.7-.408 3.846-1.073-.387 4.388-2.604 10.788-10.728 17.317-1.14.912-1.345 2.608-.462 3.783a2.561 2.561 0 0 0 2.06 1.046c.56 0 1.12-.188 1.598-.563 9.975-8.026 12.46-16.266 12.8-21.77.57-7.04-1.571-10.741-3.54-12.673z"/>
    </g>
</svg>
