<svg xmlns="http://www.w3.org/2000/svg" width="18" height="14" viewBox="0 0 18 14">
    <path fill="#3F4ACA" fill-rule="evenodd" d="M18 1.657a7.627 7.627 0 0 1-2.12.556A3.577 3.577 0 0 0 17.502.26a7.599 7.599 0 0 1-2.345.857A3.769 3.769 0 0 0 12.46 0C10.423 0 8.77 1.583 8.77 3.534c0 .277.033.547.096.805-3.07-.147-5.79-1.553-7.612-3.692-.318.522-.5 1.13-.5 1.777 0 1.225.652 2.307 1.643 2.942a3.804 3.804 0 0 1-1.673-.443v.045c0 1.712 1.273 3.14 2.962 3.465a3.858 3.858 0 0 1-1.668.061c.47 1.404 1.834 2.426 3.45 2.454A7.62 7.62 0 0 1 .88 12.461c-.297 0-.592-.016-.88-.05A10.79 10.79 0 0 0 5.66 14c6.793 0 10.508-5.385 10.508-10.056 0-.153-.004-.306-.01-.458A7.32 7.32 0 0 0 18 1.657"/>
</svg>
