<svg xmlns="http://www.w3.org/2000/svg" xmlns:xlink="http://www.w3.org/1999/xlink" width="109" height="66" viewBox="0 0 109 66">
    <defs>
        <path id="a" d="M.04.124h61.332v46.079H.04z"/>
        <path id="c" d="M0 65.876h108.877V.146H0z"/>
    </defs>
    <g fill="none" fill-rule="evenodd">
        <path fill="#D98465" d="M102.312 27.653l1.167-.41s.9.073 1.102.318l.354.947-1.286 1.08-1.137-.573-.2-1.362z"/>
        <g transform="translate(16.277 .022)">
            <mask id="b" fill="#fff">
                <use xlink:href="#a"/>
            </mask>
            <path fill="#6475E7" d="M30.706 3.369v-.824c0-1.337-1.105-2.42-2.468-2.42H2.508C1.144.124.04 1.207.04 2.544v43.658h61.332V5.79c0-1.337-1.105-2.421-2.467-2.421h-28.2z" mask="url(#b)"/>
        </g>
        <mask id="d" fill="#fff">
            <use xlink:href="#c"/>
        </mask>
        <path fill="#FFF0DD" d="M19.04 46.668H75.5V6.88H19.04z" mask="url(#d)"/>
        <path fill="#4768D7" d="M46.109 11.855l-.911 2.476H18.785c-1.363 0-2.468 1.084-2.468 2.421v30.825c0 1.338 1.105 2.421 2.468 2.421h56.397c1.363 0 2.468-1.083 2.468-2.42V12.675c0-1.337-1.105-2.421-2.468-2.421H48.43c-1.04 0-1.969.64-2.321 1.6" mask="url(#d)"/>
        <path fill="#73CDCF" d="M82.797 21.79v-.701c0-1.137-.94-2.06-2.099-2.06H58.815c-1.159 0-2.098.923-2.098 2.06v37.128h52.16V23.848c0-1.137-.94-2.059-2.098-2.059H82.797z" mask="url(#d)"/>
        <path fill="#FFF0DD" d="M59.032 58.594h48.017V24.756H59.032z" mask="url(#d)"/>
        <path fill="#67BBBB" d="M82.053 28.987l-.774 2.106H58.815c-1.159 0-2.098.922-2.098 2.06v26.215c0 1.137.94 2.059 2.098 2.059h47.963c1.16 0 2.1-.922 2.1-2.06V29.687c0-1.138-.94-2.06-2.1-2.06h-22.75c-.885 0-1.675.545-1.975 1.361" mask="url(#d)"/>
        <path fill="#3D4BCA" d="M25.66 39.08l-3.097-2.351 10.89-14.559 3.098 2.35z" mask="url(#d)"/>
        <path fill="#3D4BCA" d="M20.589 42.651l-.036-.027c-.977-.741-1.324-1.936-.776-2.669l6.204-8.428 3.732 2.708-6.363 8.433c-.548.732-1.784.725-2.761-.017M48.058 25.782c-3.85 5.148-11.145 6.153-16.293 2.245-5.148-3.907-6.2-11.248-2.35-16.395S40.56 5.48 45.708 9.387c5.148 3.908 6.2 11.248 2.35 16.395" mask="url(#d)"/>
        <path fill="#FFF" d="M46.756 24.794c-3.313 4.428-9.588 5.293-14.017 1.93-4.428-3.36-5.334-9.675-2.021-14.103 3.312-4.428 9.587-5.293 14.016-1.931 4.429 3.361 5.334 9.676 2.022 14.104" mask="url(#d)"/>
        <path fill="#3D4BCA" d="M39.744 11.52c3.186.243 5.891 2.585 6.515 5.75.623 3.156-1.009 6.385-3.892 7.75-.813.385-.27 1.685.544 1.3a8.542 8.542 0 0 0 4.806-8.786c-.454-3.619-3.27-6.516-6.784-7.269a7.703 7.703 0 0 0-1.03-.141c-.897-.069-1.061 1.327-.159 1.396" mask="url(#d)"/>
        <path fill="#F9F9F9" d="M40.828 26.988a.916.916 0 0 1-1.29.177.932.932 0 0 1-.186-1.297.916.916 0 0 1 1.29-.178c.407.31.49.89.186 1.298" mask="url(#d)"/>
        <path fill="#6475E7" d="M26.101 31.658l3.55 2.576a.29.29 0 0 0 .39-.042l.032-.037a.295.295 0 0 0-.052-.435l-3.58-2.544a.29.29 0 0 0-.41.074l-.002.005a.295.295 0 0 0 .072.403" mask="url(#d)"/>
        <path fill="#3D4BCA" d="M37.845 28.48a10.044 10.044 0 0 1-6.319-3.075c-1.648-1.735-2.614-4.027-2.749-6.41-.137-2.435.678-4.862 2.188-6.748 1.47-1.837 3.605-3.08 5.913-3.498 2.393-.434 4.92.069 6.993 1.362a10.132 10.132 0 0 1 4.241 5.458c.752 2.343.594 4.91-.395 7.144-.952 2.152-2.703 3.893-4.817 4.89-1.57.74-3.325 1.029-5.055.876-.342-.03-.387.504-.044.534 2.403.212 4.787-.41 6.781-1.755 1.947-1.313 3.4-3.316 4.086-5.568.711-2.336.566-4.889-.372-7.15a10.636 10.636 0 0 0-4.607-5.153 10.524 10.524 0 0 0-7.05-1.14c-2.31.437-4.404 1.695-5.931 3.474-1.57 1.828-2.435 4.214-2.472 6.632-.036 2.396.777 4.754 2.243 6.649 1.772 2.289 4.465 3.738 7.322 4.01.342.033.386-.5.044-.533" mask="url(#d)"/>
        <path fill="#747474" d="M30.634 32.317l.014-.03-.014.03zm-9.01 9.04l-.026-.019.028.017-.001.002z" mask="url(#d)"/>
        <path fill="#071225" d="M7.892 64.11l.076.05.751.936-.876.77-1.564-1.018.062-.853.019-.258 1.505.476z" mask="url(#d)"/>
        <path fill="#33435A" d="M7.887 45.502l-1.61 18.209.083.026 1.505.476.028-.102 3.742-13.944-.021-4.75a158.25 158.25 0 0 1-3.727.085M16.158 45.885l-.942 18.448-1.522.042.005.189h-.009L12.233 46.29c.19-.007 2.81-.175 3.925-.406" mask="url(#d)"/>
        <path fill="#071225" d="M15.216 64.16l.105-.002.837.836-.79.882-1.65-.814-.019-.67 1.496-.041z" mask="url(#d)"/>
        <path fill="#FFCAC4" d="M13.275 15.029a9.227 9.227 0 0 0-.122-.928c-.136-.758-.468-1.301-.907-1.655-.102.394-.38.718-.656 1.02a7.42 7.42 0 0 0-.033.037c-.718.782-1.448 1.565-2.007 2.468-.446.721-.78 1.532-.877 2.37.28.257.596.462.938.594.019.26.055.556.139.73.02.042.044.078.071.103.22.207.942.04 1.225-.017a.43.43 0 0 0 .218-.09.226.226 0 0 0 .052-.093c.048-.145.047-.398.055-.63.848-.32 1.467-1.124 1.733-2 .187-.616.22-1.264.171-1.91" mask="url(#d)"/>
        <path fill="#424DBF" d="M20.807 44.671c-1.497-1.967-1.42-5.292-1.766-7.634-.356-2.412-.713-4.83-1.304-7.193a33.62 33.62 0 0 0-.624-2.185 33.773 33.773 0 0 0-1.294-3.386c-.536-1.204-1.191-3.183-2.162-4.094a1.475 1.475 0 0 0-.1-.087c-.524-.413-1.35-.529-2.241-.524a.225.225 0 0 1-.052.093.43.43 0 0 1-.218.09c-.283.057-1.004.224-1.225.017a.354.354 0 0 1-.071-.104c-.375.037-.738.077-1.071.108.077 1.83.196 3.692.713 5.466l.037.131c.663 2.187 1.202 4.42 1.802 6.626.053.194.106.39.156.587.206.81.363 1.635.258 2.459-.025.2-.07.399-.133.593-.149.461-.4.892-.737 1.215-.185.177-.395.321-.63.421a1.897 1.897 0 0 1-.257.09c-.374-.578-1.3-.023-1.526.628-.227.651-.27 1.474-.865 1.817-.47.27-1.07.15-1.664.07-.369-.05-.735-.085-1.066 0-.31.08-.606.261-.886.356-.558 1.635-1.489 2.984-2.93 4.3-.305.278-.655.638-.551 1.039.063.241.277.408.486.544 2.057 1.34 4.658 1.413 7.108 1.386h.027a158.249 158.249 0 0 0 4.982-.134l.57-.023c1.093-.05 2.24-.152 3.355-.383 1.357-.28 2.668-.752 3.78-1.558.129-.093.265-.211.27-.37.005-.136-.088-.253-.17-.36" mask="url(#d)"/>
        <path fill="#FFCAC4" d="M26.274 27.013l.68-.53.185.089-.1.233.69-.277.574.187.243.769-.287.782-.784.162-.903-.303-.527-.053.143-1.071z" mask="url(#d)"/>
        <path fill="#424DBF" d="M26.256 28.37l-.048-1.763-7.773-1.942-4.879-4.573-.304 4.893 4.136 2.764z" mask="url(#d)"/>
        <path fill="#FFCAC4" d="M24.25 30.996l.694-.51.182.093-.104.23.696-.257.568.202.222.776-.308.774-.788.14-.895-.328-.525-.068.173-1.067z" mask="url(#d)"/>
        <path fill="#4E5FCA" d="M24.25 32.353l-.049-1.764-7.772-1.942-7.75-8.875-3.098 4.413 9.801 7.547z" mask="url(#d)"/>
        <path fill="#33435A" d="M13.662 13.27a2.729 2.729 0 0 0-1.394-2.03 3.017 3.017 0 0 0-.19.11 1.987 1.987 0 0 0-.214-.317c-.479-.58-1.05-.87-1.78-.893-2.561-.082-4.499 1.43-5.245 3.943-.63 2.125-.358 4.397-.238 6.612.181 3.33-.526 7.172-2.486 9.9-.798 1.113-1.67 2.228-2.001 3.558-.332 1.331.053 2.961 1.259 3.6.47.25 1.032.334 1.441.677.43.36.458.973.065 1.351.31.554.643.572 1.002.45.28-.095.575-.276.886-.356.33-.085.697-.05 1.066 0 .594.08 1.194.2 1.664-.07.594-.343.638-1.166.865-1.817.227-.65 1.152-1.206 1.526-.628.089-.024.175-.054.258-.09.234-.1.444-.244.629-.42.338-.324.588-.755.737-1.216.063-.194.108-.394.133-.593.105-.824-.052-1.65-.258-2.46-.05-.196-.103-.392-.156-.586-.6-2.206-1.139-4.439-1.802-6.626l-.037-.13c-.517-1.774-.636-3.637-.713-5.466l-.032-.788c-.009-.216.001-.43.026-.644.096-.838.43-1.649.877-2.37.56-.903 1.289-1.686 2.007-2.468l.033-.036c.276-.303.554-.627.656-1.02.44.353.77.896.907 1.654.055.306.098.616.122.928a2.743 2.743 0 0 0 .387-1.76" mask="url(#d)"/>
    </g>
</svg>
